# Blender v2.76 (sub 0) OBJ File: 'tie_laser.blend'
# www.blender.org
mtllib tie_laser.mtl
o Cylinder.001_Cylinder.003
v 0.654768 0.137569 0.438286
v 0.655950 0.132090 -0.461696
v 0.664519 0.138567 0.438293
v 0.665701 0.133088 -0.461690
v 0.673888 0.141448 0.438288
v 0.675069 0.135969 -0.461695
v 0.682514 0.146102 0.438271
v 0.683696 0.140623 -0.461712
v 0.690067 0.152349 0.438243
v 0.691249 0.146870 -0.461740
v 0.696256 0.159949 0.438204
v 0.697438 0.154470 -0.461778
v 0.700844 0.168611 0.438158
v 0.702026 0.163132 -0.461825
v 0.703653 0.178001 0.438104
v 0.704835 0.172523 -0.461878
v 0.704577 0.187759 0.438046
v 0.705758 0.182281 -0.461936
v 0.703579 0.197510 0.437985
v 0.704760 0.192031 -0.461997
v 0.700697 0.206878 0.437925
v 0.701879 0.201400 -0.462058
v 0.696044 0.215505 0.437866
v 0.697226 0.210026 -0.462117
v 0.689797 0.223058 0.437812
v 0.690979 0.217579 -0.462171
v 0.682196 0.229247 0.437764
v 0.683378 0.223768 -0.462218
v 0.673534 0.233834 0.437725
v 0.674716 0.228355 -0.462258
v 0.664144 0.236643 0.437695
v 0.665326 0.231164 -0.462287
v 0.654386 0.237566 0.437677
v 0.655567 0.232088 -0.462306
v 0.644635 0.236568 0.437670
v 0.645817 0.231089 -0.462312
v 0.635266 0.233687 0.437676
v 0.636448 0.228208 -0.462307
v 0.626640 0.229033 0.437693
v 0.627821 0.223555 -0.462290
v 0.619087 0.222786 0.437721
v 0.620268 0.217308 -0.462262
v 0.612898 0.215186 0.437759
v 0.614079 0.209707 -0.462224
v 0.608310 0.206524 0.437805
v 0.609492 0.201045 -0.462177
v 0.605501 0.197134 0.437859
v 0.606683 0.191655 -0.462124
v 0.604577 0.187376 0.437917
v 0.605759 0.181897 -0.462065
v 0.605576 0.177625 0.437978
v 0.606757 0.172147 -0.462005
v 0.608457 0.168257 0.438039
v 0.609638 0.162778 -0.461944
v 0.613110 0.159630 0.438097
v 0.614292 0.154152 -0.461885
v 0.619357 0.152078 0.438151
v 0.620539 0.146599 -0.461831
v 0.626958 0.145889 0.438199
v 0.628140 0.140410 -0.461783
v 0.635620 0.141301 0.438238
v 0.636801 0.135823 -0.461744
v 0.645010 0.138492 0.438268
v 0.646192 0.133013 -0.461715
vn 0.101800 -0.994800 0.006200
vn 0.293900 -0.955800 0.006200
vn 0.474800 -0.880100 0.006000
vn 0.637300 -0.770600 0.005500
vn 0.775400 -0.631400 0.004900
vn 0.883700 -0.468000 0.004000
vn 0.958000 -0.286600 0.003000
vn 0.995600 -0.094200 0.001900
vn 0.994800 0.101800 0.000700
vn 0.955800 0.293900 -0.000500
vn 0.880100 0.474800 -0.001700
vn 0.770600 0.637300 -0.002900
vn 0.631400 0.775400 -0.003900
vn 0.468000 0.883700 -0.004800
vn 0.286600 0.958000 -0.005500
vn 0.094200 0.995500 -0.005900
vn -0.101800 0.994800 -0.006200
vn -0.293900 0.955800 -0.006200
vn -0.474800 0.880100 -0.006000
vn -0.637300 0.770600 -0.005500
vn -0.775400 0.631400 -0.004900
vn -0.883700 0.468000 -0.004000
vn -0.958000 0.286600 -0.003000
vn -0.995600 0.094200 -0.001900
vn -0.994800 -0.101800 -0.000700
vn -0.955800 -0.294000 0.000500
vn -0.880100 -0.474800 0.001700
vn -0.770600 -0.637300 0.002900
vn -0.631400 -0.775400 0.003900
vn -0.468000 -0.883700 0.004800
vn 0.001300 -0.006100 -1.000000
vn -0.094200 -0.995500 0.005900
vn -0.286600 -0.958000 0.005500
vn -0.001300 0.006100 1.000000
usemtl Material.001
s off
f 1//1 2//1 4//1 3//1
f 3//2 4//2 6//2 5//2
f 5//3 6//3 8//3 7//3
f 7//4 8//4 10//4 9//4
f 9//5 10//5 12//5 11//5
f 11//6 12//6 14//6 13//6
f 13//7 14//7 16//7 15//7
f 15//8 16//8 18//8 17//8
f 17//9 18//9 20//9 19//9
f 19//10 20//10 22//10 21//10
f 21//11 22//11 24//11 23//11
f 23//12 24//12 26//12 25//12
f 25//13 26//13 28//13 27//13
f 27//14 28//14 30//14 29//14
f 29//15 30//15 32//15 31//15
f 31//16 32//16 34//16 33//16
f 33//17 34//17 36//17 35//17
f 35//18 36//18 38//18 37//18
f 37//19 38//19 40//19 39//19
f 39//20 40//20 42//20 41//20
f 41//21 42//21 44//21 43//21
f 43//22 44//22 46//22 45//22
f 45//23 46//23 48//23 47//23
f 47//24 48//24 50//24 49//24
f 49//25 50//25 52//25 51//25
f 51//26 52//26 54//26 53//26
f 53//27 54//27 56//27 55//27
f 55//28 56//28 58//28 57//28
f 57//29 58//29 60//29 59//29
f 59//30 60//30 62//30 61//30
f 4//31 2//31 64//31 62//31 60//31 58//31 56//31 54//31 52//31 50//31 48//31 46//31 44//31 42//31 40//31 38//31 36//31 34//31 32//31 30//31 28//31 26//31 24//31 22//31 20//31 18//31 16//31 14//31 12//31 10//31 8//31 6//31
f 63//32 64//32 2//32 1//32
f 61//33 62//33 64//33 63//33
f 1//34 3//34 5//34 7//34 9//34 11//34 13//34 15//34 17//34 19//34 21//34 23//34 25//34 27//34 29//34 31//34 33//34 35//34 37//34 39//34 41//34 43//34 45//34 47//34 49//34 51//34 53//34 55//34 57//34 59//34 61//34 63//34
o Cylinder_Cylinder.001
v -0.027065 0.137569 0.438286
v -0.025883 0.132090 -0.461696
v -0.017314 0.138567 0.438293
v -0.016132 0.133088 -0.461690
v -0.007945 0.141448 0.438288
v -0.006764 0.135969 -0.461695
v 0.000681 0.146102 0.438271
v 0.001863 0.140623 -0.461712
v 0.008234 0.152349 0.438243
v 0.009416 0.146870 -0.461740
v 0.014423 0.159949 0.438204
v 0.015605 0.154470 -0.461778
v 0.019011 0.168611 0.438158
v 0.020192 0.163132 -0.461825
v 0.021820 0.178001 0.438104
v 0.023002 0.172523 -0.461878
v 0.022744 0.187759 0.438046
v 0.023925 0.182281 -0.461936
v 0.021746 0.197510 0.437985
v 0.022927 0.192031 -0.461997
v 0.018864 0.206878 0.437925
v 0.020046 0.201400 -0.462058
v 0.014211 0.215505 0.437866
v 0.015393 0.210026 -0.462117
v 0.007964 0.223058 0.437812
v 0.009145 0.217579 -0.462171
v 0.000363 0.229247 0.437764
v 0.001545 0.223768 -0.462218
v -0.008299 0.233834 0.437725
v -0.007117 0.228355 -0.462258
v -0.017689 0.236643 0.437695
v -0.016507 0.231164 -0.462287
v -0.027447 0.237566 0.437677
v -0.026266 0.232088 -0.462306
v -0.037198 0.236568 0.437670
v -0.036016 0.231089 -0.462312
v -0.046567 0.233687 0.437676
v -0.045385 0.228208 -0.462307
v -0.055193 0.229033 0.437693
v -0.054012 0.223555 -0.462290
v -0.062746 0.222786 0.437721
v -0.061565 0.217308 -0.462262
v -0.068935 0.215186 0.437759
v -0.067754 0.209707 -0.462224
v -0.073523 0.206524 0.437805
v -0.072341 0.201045 -0.462177
v -0.076332 0.197134 0.437859
v -0.075150 0.191655 -0.462124
v -0.077256 0.187376 0.437917
v -0.076074 0.181897 -0.462065
v -0.076258 0.177625 0.437978
v -0.075076 0.172147 -0.462005
v -0.073376 0.168257 0.438039
v -0.072195 0.162778 -0.461944
v -0.068723 0.159630 0.438097
v -0.067541 0.154152 -0.461885
v -0.062476 0.152078 0.438151
v -0.061294 0.146599 -0.461831
v -0.054875 0.145889 0.438199
v -0.053693 0.140410 -0.461783
v -0.046213 0.141301 0.438238
v -0.045032 0.135823 -0.461744
v -0.036823 0.138492 0.438268
v -0.035641 0.133013 -0.461715
vn 0.101800 -0.994800 0.006200
vn 0.293900 -0.955800 0.006200
vn 0.474800 -0.880100 0.006000
vn 0.637300 -0.770600 0.005500
vn 0.775400 -0.631400 0.004900
vn 0.883700 -0.468000 0.004000
vn 0.958000 -0.286600 0.003000
vn 0.995600 -0.094200 0.001900
vn 0.994800 0.101800 0.000700
vn 0.955800 0.293900 -0.000500
vn 0.880100 0.474800 -0.001700
vn 0.770600 0.637300 -0.002900
vn 0.631400 0.775400 -0.003900
vn 0.468000 0.883700 -0.004800
vn 0.286600 0.958000 -0.005500
vn 0.094200 0.995500 -0.005900
vn -0.101800 0.994800 -0.006200
vn -0.293900 0.955800 -0.006200
vn -0.474800 0.880100 -0.006000
vn -0.637300 0.770600 -0.005500
vn -0.775400 0.631400 -0.004900
vn -0.883700 0.468000 -0.004000
vn -0.958000 0.286600 -0.003000
vn -0.995600 0.094200 -0.001900
vn -0.994800 -0.101800 -0.000700
vn -0.955800 -0.293900 0.000500
vn -0.880100 -0.474800 0.001700
vn -0.770600 -0.637300 0.002900
vn -0.631400 -0.775400 0.003900
vn -0.468000 -0.883700 0.004800
vn 0.001300 -0.006100 -1.000000
vn -0.094200 -0.995500 0.005900
vn -0.286600 -0.958000 0.005500
vn -0.001300 0.006100 1.000000
usemtl Material.001
s off
f 65//35 66//35 68//35 67//35
f 67//36 68//36 70//36 69//36
f 69//37 70//37 72//37 71//37
f 71//38 72//38 74//38 73//38
f 73//39 74//39 76//39 75//39
f 75//40 76//40 78//40 77//40
f 77//41 78//41 80//41 79//41
f 79//42 80//42 82//42 81//42
f 81//43 82//43 84//43 83//43
f 83//44 84//44 86//44 85//44
f 85//45 86//45 88//45 87//45
f 87//46 88//46 90//46 89//46
f 89//47 90//47 92//47 91//47
f 91//48 92//48 94//48 93//48
f 93//49 94//49 96//49 95//49
f 95//50 96//50 98//50 97//50
f 97//51 98//51 100//51 99//51
f 99//52 100//52 102//52 101//52
f 101//53 102//53 104//53 103//53
f 103//54 104//54 106//54 105//54
f 105//55 106//55 108//55 107//55
f 107//56 108//56 110//56 109//56
f 109//57 110//57 112//57 111//57
f 111//58 112//58 114//58 113//58
f 113//59 114//59 116//59 115//59
f 115//60 116//60 118//60 117//60
f 117//61 118//61 120//61 119//61
f 119//62 120//62 122//62 121//62
f 121//63 122//63 124//63 123//63
f 123//64 124//64 126//64 125//64
f 68//65 66//65 128//65 126//65 124//65 122//65 120//65 118//65 116//65 114//65 112//65 110//65 108//65 106//65 104//65 102//65 100//65 98//65 96//65 94//65 92//65 90//65 88//65 86//65 84//65 82//65 80//65 78//65 76//65 74//65 72//65 70//65
f 127//66 128//66 66//66 65//66
f 125//67 126//67 128//67 127//67
f 65//68 67//68 69//68 71//68 73//68 75//68 77//68 79//68 81//68 83//68 85//68 87//68 89//68 91//68 93//68 95//68 97//68 99//68 101//68 103//68 105//68 107//68 109//68 111//68 113//68 115//68 117//68 119//68 121//68 123//68 125//68 127//68
