# Blender v2.74 (sub 0) OBJ File: ''
# www.blender.org
mtllib tree.mtl
o Icosahedron
v -0.262866 1.283925 0.000000
v 0.262866 1.283925 0.000000
v -0.262866 0.433275 0.000000
v 0.262866 0.433275 0.000000
v 0.000000 0.595734 0.425325
v 0.000000 1.121466 0.425325
v 0.000000 0.595734 -0.425325
v 0.000000 1.121466 -0.425325
v 0.425325 0.858600 -0.262866
v 0.425325 0.858600 0.262866
v -0.425325 0.858600 -0.262866
v -0.425325 0.858600 0.262866
v -0.404509 1.108600 0.154509
v -0.154509 1.263108 0.250000
v -0.250000 1.013108 0.404509
v 0.000000 1.358600 0.000000
v 0.154509 1.263108 0.250000
v -0.154509 1.263108 -0.250000
v 0.154509 1.263108 -0.250000
v -0.404509 1.108600 -0.154509
v -0.250000 1.013108 -0.404509
v -0.500000 0.858600 0.000000
v 0.404509 1.108600 0.154509
v 0.250000 1.013108 0.404509
v 0.000000 0.858600 0.500000
v -0.250000 0.704092 0.404509
v -0.404509 0.608600 0.154509
v -0.404509 0.608600 -0.154509
v -0.250000 0.704092 -0.404509
v 0.000000 0.858600 -0.500000
v 0.250000 1.013108 -0.404509
v 0.404509 1.108600 -0.154509
v 0.404509 0.608600 0.154509
v 0.154509 0.454092 0.250000
v 0.250000 0.704092 0.404509
v 0.000000 0.358600 0.000000
v -0.154509 0.454092 0.250000
v 0.154509 0.454092 -0.250000
v -0.154509 0.454092 -0.250000
v 0.404509 0.608600 -0.154509
v 0.250000 0.704092 -0.404509
v 0.500000 0.858600 0.000000
vt 0.558070 0.666667
vt 0.661896 0.800000
vt 0.500000 0.823792
vt 0.661896 0.600000
vt 0.588104 0.500000
vt 0.750000 0.676208
vt 0.585891 1.000000
vt 0.838104 0.800000
vt 0.750000 1.000000
vt 1.000000 0.823792
vt 0.914109 1.000000
vt 0.414109 1.000000
vt 0.338104 0.800000
vt 0.250000 1.000000
vt 0.161896 0.800000
vt 0.000000 0.823792
vt 0.085891 1.000000
vt 0.250000 0.676208
vt 0.441930 0.666667
vt 0.338104 0.600000
vt 0.411896 0.500000
vt 0.500000 0.500000
vt 0.941930 0.666667
vt 0.838104 0.600000
vt 0.911896 0.500000
vt 0.750000 0.500000
vt 0.661896 0.400000
vt 0.750000 0.323792
vt 0.558070 0.333333
vt 0.441930 0.333333
vt 0.500000 0.176208
vt 0.338104 0.400000
vt 0.250000 0.500000
vt 0.250000 0.323792
vt 0.161896 0.600000
vt 0.058070 0.666667
vt 0.088104 0.500000
vt 0.941930 0.333333
vt 0.838104 0.200000
vt 1.000000 0.176208
vt 0.838104 0.400000
vt 0.914109 0.000000
vt 0.661896 0.200000
vt 0.750000 0.000000
vt 0.585891 0.000000
vt 0.085891 0.000000
vt 0.161896 0.200000
vt 0.000000 0.176208
vt 0.250000 0.000000
vt 0.338104 0.200000
vt 0.414109 0.000000
vt 0.058070 0.333333
vt 0.161896 0.400000
vt 1.058070 0.333333
vt 1.000000 0.500000
vt 0.000000 0.500000
vt 1.058070 0.666667
vn -0.583100 0.748800 0.315100
vn -0.577400 0.577400 0.577400
vn -0.748800 0.315100 0.583100
vn -0.315100 0.583100 0.748800
vn -0.268000 0.943500 0.194700
vn 0.000000 0.934200 0.356800
vn 0.000000 0.777900 0.628400
vn 0.268000 0.943500 0.194700
vn -0.268000 0.943500 -0.194700
vn 0.000000 0.934200 -0.356800
vn 0.268000 0.943500 -0.194700
vn 0.000000 0.777900 -0.628400
vn -0.583100 0.748800 -0.315100
vn -0.577400 0.577400 -0.577400
vn -0.315100 0.583100 -0.748800
vn -0.748800 0.315100 -0.583100
vn -0.777900 0.628400 0.000000
vn -0.934200 0.356800 0.000000
vn -0.943500 0.194700 -0.268000
vn -0.943500 0.194700 0.268000
vn 0.583100 0.748800 0.315100
vn 0.577400 0.577400 0.577400
vn 0.315100 0.583100 0.748800
vn 0.748800 0.315100 0.583100
vn -0.194700 0.268000 0.943500
vn -0.356800 0.000000 0.934200
vn -0.628400 0.000000 0.777900
vn -0.194700 -0.268000 0.943500
vn -0.943500 -0.194700 0.268000
vn -0.934200 -0.356800 0.000000
vn -0.943500 -0.194700 -0.268000
vn -0.777900 -0.628400 0.000000
vn -0.628400 0.000000 -0.777900
vn -0.356800 0.000000 -0.934200
vn -0.194700 0.268000 -0.943500
vn -0.194700 -0.268000 -0.943500
vn 0.315100 0.583100 -0.748800
vn 0.577400 0.577400 -0.577400
vn 0.583100 0.748800 -0.315100
vn 0.748800 0.315100 -0.583100
vn 0.583100 -0.748800 0.315100
vn 0.577400 -0.577400 0.577400
vn 0.748800 -0.315100 0.583100
vn 0.315100 -0.583100 0.748800
vn 0.268000 -0.943500 0.194700
vn 0.000000 -0.934200 0.356800
vn 0.000000 -0.777900 0.628400
vn -0.268000 -0.943500 0.194700
vn 0.268000 -0.943500 -0.194700
vn 0.000000 -0.934200 -0.356800
vn -0.268000 -0.943500 -0.194700
vn 0.000000 -0.777900 -0.628400
vn 0.583100 -0.748800 -0.315100
vn 0.577400 -0.577400 -0.577400
vn 0.315100 -0.583100 -0.748800
vn 0.748800 -0.315100 -0.583100
vn 0.777900 -0.628400 0.000000
vn 0.934200 -0.356800 0.000000
vn 0.943500 -0.194700 -0.268000
vn 0.943500 -0.194700 0.268000
vn 0.194700 -0.268000 0.943500
vn 0.356800 0.000000 0.934200
vn 0.628400 0.000000 0.777900
vn 0.194700 0.268000 0.943500
vn -0.583100 -0.748800 0.315100
vn -0.577400 -0.577400 0.577400
vn -0.315100 -0.583100 0.748800
vn -0.748800 -0.315100 0.583100
vn -0.315100 -0.583100 -0.748800
vn -0.577400 -0.577400 -0.577400
vn -0.583100 -0.748800 -0.315100
vn -0.748800 -0.315100 -0.583100
vn 0.628400 0.000000 -0.777900
vn 0.356800 0.000000 -0.934200
vn 0.194700 -0.268000 -0.943500
vn 0.194700 0.268000 -0.943500
vn 0.943500 0.194700 0.268000
vn 0.934200 0.356800 0.000000
vn 0.943500 0.194700 -0.268000
vn 0.777900 0.628400 0.000000
usemtl Leaves
s off
f 13/1/1 14/2/1 1/3/1
f 13/1/2 15/4/2 14/2/2
f 12/5/3 15/4/3 13/1/3
f 15/4/4 6/6/4 14/2/4
f 14/2/5 16/7/5 1/3/5
f 14/2/6 17/8/6 16/9/6
f 6/6/7 17/8/7 14/2/7
f 17/8/8 2/10/8 16/11/8
f 16/12/9 18/13/9 1/3/9
f 16/14/10 19/15/10 18/13/10
f 2/16/11 19/15/11 16/17/11
f 19/15/12 8/18/12 18/13/12
f 18/13/13 20/19/13 1/3/13
f 18/13/14 21/20/14 20/19/14
f 8/18/15 21/20/15 18/13/15
f 21/20/16 11/21/16 20/19/16
f 20/19/17 13/1/17 1/3/17
f 20/19/18 22/22/18 13/1/18
f 11/21/19 22/22/19 20/19/19
f 22/22/20 12/5/20 13/1/20
f 17/8/21 23/23/21 2/10/21
f 17/8/22 24/24/22 23/23/22
f 6/6/23 24/24/23 17/8/23
f 24/24/24 10/25/24 23/23/24
f 15/4/25 25/26/25 6/6/25
f 15/4/26 26/27/26 25/26/26
f 12/5/27 26/27/27 15/4/27
f 26/27/28 5/28/28 25/26/28
f 22/22/29 27/29/29 12/5/29
f 22/22/30 28/30/30 27/29/30
f 11/21/31 28/30/31 22/22/31
f 28/30/32 3/31/32 27/29/32
f 21/20/33 29/32/33 11/21/33
f 21/20/34 30/33/34 29/32/34
f 8/18/35 30/33/35 21/20/35
f 30/33/36 7/34/36 29/32/36
f 19/15/37 31/35/37 8/18/37
f 19/15/38 32/36/38 31/35/38
f 2/16/39 32/36/39 19/15/39
f 32/36/40 9/37/40 31/35/40
f 33/38/41 34/39/41 4/40/41
f 33/38/42 35/41/42 34/39/42
f 10/25/43 35/41/43 33/38/43
f 35/41/44 5/28/44 34/39/44
f 34/39/45 36/42/45 4/40/45
f 34/39/46 37/43/46 36/44/46
f 5/28/47 37/43/47 34/39/47
f 37/43/48 3/31/48 36/45/48
f 36/46/49 38/47/49 4/48/49
f 36/49/50 39/50/50 38/47/50
f 3/31/51 39/50/51 36/51/51
f 39/50/52 7/34/52 38/47/52
f 38/47/53 40/52/53 4/48/53
f 38/47/54 41/53/54 40/52/54
f 7/34/55 41/53/55 38/47/55
f 41/53/56 9/37/56 40/52/56
f 40/54/57 33/38/57 4/40/57
f 40/54/58 42/55/58 33/38/58
f 9/37/59 42/56/59 40/52/59
f 42/55/60 10/25/60 33/38/60
f 35/41/61 25/26/61 5/28/61
f 35/41/62 24/24/62 25/26/62
f 10/25/63 24/24/63 35/41/63
f 24/24/64 6/6/64 25/26/64
f 37/43/65 27/29/65 3/31/65
f 37/43/66 26/27/66 27/29/66
f 5/28/67 26/27/67 37/43/67
f 26/27/68 12/5/68 27/29/68
f 39/50/69 29/32/69 7/34/69
f 39/50/70 28/30/70 29/32/70
f 3/31/71 28/30/71 39/50/71
f 28/30/72 11/21/72 29/32/72
f 41/53/73 31/35/73 9/37/73
f 41/53/74 30/33/74 31/35/74
f 7/34/75 30/33/75 41/53/75
f 30/33/76 8/18/76 31/35/76
f 42/55/77 23/23/77 10/25/77
f 42/55/78 32/57/78 23/23/78
f 9/37/79 32/36/79 42/56/79
f 32/57/80 2/10/80 23/23/80
o Cylinder
v 0.000000 0.450000 0.100000
v 0.054100 0.450000 0.084100
v 0.091000 0.450000 0.041500
v 0.099000 0.450000 -0.014200
v 0.075600 0.450000 -0.065500
v 0.028200 0.450000 -0.095900
v -0.028200 0.450000 -0.095900
v -0.075600 0.450000 -0.065500
v -0.099000 0.450000 -0.014200
v -0.091000 0.450000 0.041500
v -0.054100 0.450000 0.084100
v 0.000000 -0.450000 0.100000
v 0.054100 -0.450000 0.084100
v 0.091000 -0.450000 0.041500
v 0.099000 -0.450000 -0.014200
v 0.075600 -0.450000 -0.065500
v 0.028200 -0.450000 -0.095900
v -0.028200 -0.450000 -0.095900
v -0.075600 -0.450000 -0.065500
v -0.099000 -0.450000 -0.014200
v -0.091000 -0.450000 0.041500
v -0.054100 -0.450000 0.084100
v 0.000000 0.450000 0.000000
v 0.000000 -0.450000 0.000000
vt 0.000000 1.000000
vt 0.000000 0.000000
vt 0.090909 0.000000
vt 0.090909 1.000000
vt 0.181818 0.000000
vt 0.181818 1.000000
vt 0.272727 0.000000
vt 0.272727 1.000000
vt 0.363636 0.000000
vt 0.363636 1.000000
vt 0.454545 0.000000
vt 0.454545 1.000000
vt 0.545455 0.000000
vt 0.545455 1.000000
vt 0.636364 0.000000
vt 0.636364 1.000000
vt 0.727273 0.000000
vt 0.727273 1.000000
vt 0.818182 0.000000
vt 0.818182 1.000000
vt 0.909091 0.000000
vt 0.909091 1.000000
vt 1.000000 0.000000
vt 1.000000 1.000000
vn 0.282000 0.000000 0.959400
vn 0.755900 0.000000 0.654700
vn 0.989800 0.000000 0.142200
vn 0.909800 0.000000 -0.415000
vn 0.539900 0.000000 -0.841800
vn 0.000000 0.000000 -1.000000
vn -0.539900 0.000000 -0.841800
vn -0.909800 0.000000 -0.415000
vn -0.989800 0.000000 0.142200
vn -0.755900 0.000000 0.654700
vn -0.282000 0.000000 0.959400
vn 0.000000 1.000000 0.000000
vn 0.000000 -1.000000 0.000000
usemtl Trunk
s off
f 43/58/81 54/59/81 55/60/81 44/61/81
f 44/61/82 55/60/82 56/62/82 45/63/82
f 45/63/83 56/62/83 57/64/83 46/65/83
f 46/65/84 57/64/84 58/66/84 47/67/84
f 47/67/85 58/66/85 59/68/85 48/69/85
f 48/69/86 59/68/86 60/70/86 49/71/86
f 49/71/87 60/70/87 61/72/87 50/73/87
f 50/73/88 61/72/88 62/74/88 51/75/88
f 51/75/89 62/74/89 63/76/89 52/77/89
f 52/77/90 63/76/90 64/78/90 53/79/90
f 53/79/91 64/78/91 54/80/91 43/81/91
f 43/58/92 44/61/92 65/59/92
f 44/61/92 45/63/92 65/59/92
f 45/63/92 46/65/92 65/59/92
f 46/65/92 47/67/92 65/59/92
f 47/67/92 48/69/92 65/59/92
f 48/69/92 49/71/92 65/59/92
f 49/71/92 50/73/92 65/59/92
f 50/73/92 51/75/92 65/59/92
f 51/75/92 52/77/92 65/59/92
f 52/77/92 53/79/92 65/59/92
f 53/79/92 43/81/92 65/59/92
f 55/60/93 54/59/93 66/58/93
f 56/62/93 55/60/93 66/58/93
f 57/64/93 56/62/93 66/58/93
f 58/66/93 57/64/93 66/58/93
f 59/68/93 58/66/93 66/58/93
f 60/70/93 59/68/93 66/58/93
f 61/72/93 60/70/93 66/58/93
f 62/74/93 61/72/93 66/58/93
f 63/76/93 62/74/93 66/58/93
f 64/78/93 63/76/93 66/58/93
f 54/80/93 64/78/93 66/58/93
